<svg xmlns="http://www.w3.org/2000/svg" viewBox="0 0 50 50" width="150" height="150"><path d="M1.244 21c-.085 0-.146.015-.185.043-.04.028-.059.089-.059.18v4.886c-.001.238.029.476.086.707.054.22.155.428.297.604.14.176.331.316.572.422.24.105.544.158.912.158h1.904c.173 0 .291-.008.352-.025a.434.434 0 0 0 .174-.084c.037-.037.037-.08.037-.135 0 0-.07-.544-.105-.658-.036-.114-.026-.144-.079-.188-.053-.044-.14-.05-.218-.05H3.07c-.24 0-.43-.057-.568-.169-.138-.113-.207-.308-.207-.582v-4.886c0-.1-.018-.16-.053-.186-.036-.025-.104-.037-.203-.037h-.795zm17.75.006a.399.399 0 0 0-.232.13c-.048.06-.048.093-.067.186-.013.063-.029.199-.029.278v6.181c0 .09.02.148.06.176a.296.296 0 0 0 .17.043h.63c.092 0 .217-.012.247-.037.03-.024.045-.085.045-.182v-2.248h1.157c.502 0 .906-.086 1.214-.256.307-.17.546-.376.717-.619.17-.242.283-.494.34-.754.056-.26.086-.485.086-.672 0-.326-.056-.626-.166-.9a2.022 2.022 0 0 0-1.174-1.164 2.536 2.536 0 0 0-.918-.162h-1.91c-.078 0-.109-.013-.17 0zm-2.812.67-.713.191a.511.511 0 0 0-.156.076c-.03.026-.09.05-.09.176v.934h-.49c-.079 0-.108.018-.128.043-.012.016-.06.123-.072.14 0 0-.182.463-.195.51-.013.047.001.077.03.106.027.028.061.044.128.044h.734l-.027 2.737c0 .462.114.804.34 1.03.225.224.61.337 1.154.337.126 0 .303-.007.53-.02.23-.013.457-.056.677-.125.06-.025.09-.053.092-.08a.36.36 0 0 0-.004-.101l-.11-.617c-.006-.045-.018-.076-.038-.092s-.063-.017-.13-.004l-.175.023c-.19.026-.38.041-.572.043-.206 0-.357-.04-.457-.117-.1-.077-.15-.218-.15-.424v-2.59h1.001c.073 0 .116-.013.133-.039.017-.025.026-.067.026-.125v-.525a.218.218 0 0 0-.026-.111c-.016-.028-.06-.043-.133-.043H16.36v-1.225c0-.07-.015-.116-.048-.139-.033-.022-.076-.026-.13-.013zm3.572.476h1.197c.247 0 .452.038.613.114.16.077.285.173.375.287.091.115.155.24.192.379.037.139.056.267.055.386 0 .333-.097.608-.291.823-.194.215-.501.322-.922.322h-1.22v-2.31zm28.91.182a.332.332 0 0 0-.332.334v5a.333.333 0 0 0 .666 0v-5a.337.337 0 0 0-.334-.334zm-36.342.332a2.6 2.6 0 0 0-.79.127 1.716 1.716 0 0 0-.571.316 1.259 1.259 0 0 0-.344.467c-.077.187-.113.39-.107.592.004.195.04.366.111.514.074.152.18.287.307.398.132.118.298.225.498.318.229.106.465.199.705.28.354.124.619.238.797.345.178.107.268.256.271.444a.503.503 0 0 1-.197.418c-.135.109-.34.165-.613.17a3.65 3.65 0 0 1-.766-.078 3.647 3.647 0 0 1-.785-.245c-.073-.03-.126-.038-.158-.021-.033.016-.064.054-.096.113l-.225.549c-.05.105-.026.182.073.232.145.078.296.143.453.192.165.053.334.094.511.123a6.04 6.04 0 0 0 1.032.078c.258-.003.514-.037.763-.105a1.8 1.8 0 0 0 .608-.293c.17-.13.306-.296.398-.489.095-.196.139-.424.135-.683a1.256 1.256 0 0 0-.148-.61 1.501 1.501 0 0 0-.38-.431 2.365 2.365 0 0 0-.533-.309 10.794 10.794 0 0 0-.617-.236 5.771 5.771 0 0 1-.466-.178 2.006 2.006 0 0 1-.311-.166.565.565 0 0 1-.176-.176.478.478 0 0 1-.056-.232c-.003-.124.05-.235.16-.338.109-.102.282-.156.523-.16.222-.004.43.008.623.037.193.029.416.087.672.174a.234.234 0 0 0 .123.015c.03-.007.053-.036.072-.088l.215-.558a.287.287 0 0 0 .004-.137c-.01-.039-.044-.07-.096-.096a3.904 3.904 0 0 0-.795-.214 4.645 4.645 0 0 0-.824-.059zm21.334 0c-.3.006-.565.049-.793.127a1.716 1.716 0 0 0-.57.316 1.26 1.26 0 0 0-.342.467c-.077.187-.113.39-.107.592.004.195.04.366.111.514.074.152.178.287.305.398.132.118.3.225.5.318.229.106.463.199.703.28.354.124.62.238.799.345.178.108.268.256.271.444a.503.503 0 0 1-.197.418c-.135.109-.34.165-.613.17a3.65 3.65 0 0 1-.766-.078 3.665 3.665 0 0 1-.787-.245c-.073-.03-.124-.038-.156-.021-.033.016-.064.054-.096.113l-.227.549c-.05.105-.026.182.073.232.145.078.298.143.455.192.167.054.338.095.511.123a6.04 6.04 0 0 0 1.032.078c.258-.002.512-.037.761-.105a1.81 1.81 0 0 0 .61-.293c.17-.13.306-.296.398-.489a1.51 1.51 0 0 0 .135-.683 1.245 1.245 0 0 0-.15-.61 1.501 1.501 0 0 0-.38-.431 2.365 2.365 0 0 0-.532-.309 11.144 11.144 0 0 0-.616-.236 5.845 5.845 0 0 1-.468-.178 2.006 2.006 0 0 1-.311-.166.557.557 0 0 1-.174-.176.479.479 0 0 1-.058-.232c-.003-.124.05-.235.16-.338.108-.102.284-.156.525-.16.222-.004.428.008.621.037.193.029.418.087.674.174a.234.234 0 0 0 .123.015c.03-.007.053-.036.072-.088l.215-.558a.287.287 0 0 0 .002-.137c-.01-.039-.04-.07-.094-.096a3.922 3.922 0 0 0-.796-.214 4.65 4.65 0 0 0-.823-.059zm-25.94.002c-.284 0-.586.02-.91.062-.304.038-.604.111-.892.22-.084.031-.114.098-.088.202l.137.555c.013.058.036.094.068.107.032.013.084.012.155-.007.16-.053.371-.098.63-.137.258-.038.497-.059.717-.059.207 0 .375.02.504.063a.73.73 0 0 1 .307.18.601.601 0 0 1 .148.273c.026.103.04.217.04.34v.166H7.444c-.388 0-.714.05-.982.146a1.856 1.856 0 0 0-.654.383 1.4 1.4 0 0 0-.364.557 2.035 2.035 0 0 0-.016 1.285c.067.2.185.378.344.516.165.146.39.261.67.35.282.086.636.13 1.063.13.155 0 .316-.006.488-.016s.346-.026.52-.052c.174-.026.344-.062.51-.108.164-.045.316-.1.458-.166.123-.058.186-.164.186-.32h-.002V24.42c0-.571-.158-1.007-.47-1.305-.315-.299-.807-.447-1.48-.447zm17.335 0c-.285 0-.858.093-1.13.197-.083.032-.113.1-.087.203l.137.555c.013.058.034.094.066.107.032.013.085.01.156-.01.161-.051.452-.109.672-.109.207 0 .375.02.504.063a.73.73 0 0 1 .307.18.6.6 0 0 1 .15.273c.026.103.04.217.04.34v.166h-1.087c-.388 0-.716.05-.984.146a1.856 1.856 0 0 0-.654.383 1.389 1.389 0 0 0-.364.557 2.035 2.035 0 0 0-.014 1.285c.067.2.185.378.344.516.165.146.387.261.668.35.281.086.636.13 1.063.13a7.668 7.668 0 0 0 1.01-.068c.175-.026.342-.062.507-.108.157-.042.312-.099.461-.166.123-.058.184-.164.184-.32h-.002V24.42c0-.571-.158-1.007-.47-1.305-.314-.299-.805-.447-1.477-.447zm4.603 0c-.3.006-.563.047-.79.125a1.716 1.716 0 0 0-.571.316 1.265 1.265 0 0 0-.344.47c-.077.186-.113.389-.107.59.004.196.04.367.111.515.074.152.179.287.307.398.132.118.298.223.498.316.229.106.465.2.705.282.354.124.619.238.797.345.178.108.268.256.271.444a.5.5 0 0 1-.197.416c-.135.109-.34.167-.613.172a3.653 3.653 0 0 1-.764-.08 3.665 3.665 0 0 1-.787-.245c-.073-.03-.124-.036-.156-.02-.033.017-.064.053-.096.112l-.227.549c-.05.105-.026.184.073.234.145.078.298.143.455.192.164.053.334.094.511.123a6.04 6.04 0 0 0 1.032.078c.258-.002.512-.037.761-.105a1.81 1.81 0 0 0 .61-.293c.17-.13.304-.298.396-.49.095-.197.141-.424.139-.682a1.243 1.243 0 0 0-.152-.612 1.501 1.501 0 0 0-.38-.431 2.36 2.36 0 0 0-.532-.307 10.807 10.807 0 0 0-.618-.238 5.771 5.771 0 0 1-.466-.178 2.049 2.049 0 0 1-.313-.164.561.561 0 0 1-.174-.178.47.47 0 0 1-.056-.23.446.446 0 0 1 .16-.34c.109-.102.282-.156.523-.16.222-.004.43.01.623.039.193.029.416.085.672.172a.239.239 0 0 0 .123.017c.03-.007.054-.038.072-.09l.215-.556a.287.287 0 0 0 .002-.137c-.01-.039-.042-.07-.094-.096a3.904 3.904 0 0 0-.794-.214 4.646 4.646 0 0 0-.825-.059zm8.678 1.664a1 1 0 0 0-1 1 1 1 0 0 0 1 1 1 1 0 0 0 1-1 1 1 0 0 0-1-1zm3.666 0a1 1 0 0 0-1 1 1 1 0 0 0 1 1 1 1 0 0 0 1-1 1 1 0 0 0-1-1zm3.668 0a1 1 0 0 0-1 1 1 1 0 0 0 1 1 1 1 0 0 0 1-1 1 1 0 0 0-1-1zM7.592 25.498h.931v1.432a1.58 1.58 0 0 1-.277.078c-.1.02-.194.036-.285.049a3.998 3.998 0 0 1-.445.03c-.311-.001-.56-.057-.748-.167-.188-.11-.282-.305-.282-.584 0-.194.038-.347.112-.457a.754.754 0 0 1 .28-.252 1.01 1.01 0 0 1 .36-.107 3.48 3.48 0 0 1 .354-.022zm17.334 0h.93l.001 1.432a1.58 1.58 0 0 1-.277.078c-.1.02-.194.036-.285.049a4.067 4.067 0 0 1-.447.03c-.311-.001-.558-.057-.746-.167-.187-.11-.282-.305-.282-.584 0-.194.038-.347.112-.457a.754.754 0 0 1 .28-.252 1 1 0 0 1 .358-.107c.126-.013.246-.022.356-.022z"/></svg>