<svg xmlns="http://www.w3.org/2000/svg" fill-rule="evenodd" viewBox="0 0 32 4">
  <path d="M 14.207 0 C 14.007 0 13.676 0.067 13.523 0.331 L 11.406 3.984 L 12.561 3.992 L 14.204 1.155 L 14.985 2.493 L 13.485 2.489 L 14.071 3.481 L 15.563 3.489 L 15.845 3.984 L 17 3.984 L 14.875 0.319 C 14.66 -0.015 14.379 0 14.207 0 Z M 18.922 0 C 17.859 0 17 0.892 17 1.992 C 17 3.093 17.86 3.984 18.922 3.984 L 21 4 L 22.001 2.988 L 18.91 2.996 C 18.348 2.988 18.012 2.455 18.001 1.996 C 17.984 1.501 18.36 0.984 18.918 0.977 L 21 1.004 L 22.001 0 L 18.922 0 Z M 2.001 0.008 C 0.941 0.008 0 0.955 0 2.055 C 0 3.155 0.941 3.992 2.001 3.992 L 4 3.992 C 5.059 3.992 6.001 3.1 6.001 2 C 6.001 0.9 5.059 0.008 4 0.008 L 2.001 0.008 Z M 7 0.008 L 7 3.992 L 8 3.992 L 8 1.004 L 9.281 1.004 C 9.661 1 10.001 1.14 10.001 1.497 C 10.001 1.852 9.668 2.004 9.329 2.004 L 8 2 L 9.695 4 L 11 3.992 L 9.977 2.793 C 9.977 2.793 10.993 2.497 11 1.481 C 11.004 0.643 10.492 0.016 9.633 0.008 L 7 0.008 Z M 24 0.008 L 23 0.008 L 23 3.611 C 22.998 3.819 23.166 3.989 23.375 3.992 L 26.001 4 L 27 2.996 L 24 2.996 L 24 0.008 Z M 28.8 0.016 C 27.738 0.016 26.879 0.907 26.879 2.008 C 26.879 3.108 27.739 4 28.801 4 L 31 4 L 32 3.004 L 28.785 3.004 C 28.543 3.031 28.085 2.828 27.973 2.4 L 31 2.435 L 31.988 1.529 C 31.988 1.529 29.012 1.545 27.988 1.549 C 28.082 1.089 28.785 1.011 28.785 1.011 L 31 1.011 L 32 0.015 L 28.8 0.016 Z M 2.001 1.004 L 4 1.004 C 4.2 1.008 4.91 1.308 4.906 1.996 C 4.917 2.515 4.52 2.953 4 2.996 L 2.001 2.996 C 1.543 2.992 1.078 2.467 1.078 2.016 C 1.078 1.455 1.609 0.996 2.001 1.004 Z"/>
</svg>