<svg xmlns="http://www.w3.org/2000/svg" viewBox="0 0 32 32" width="96" height="96" fill-rule="evenodd"><path d="M14.207 13.992c-.2 0-.531.067-.684.332l-2.117 3.668L12.56 18l1.644-2.848.781 1.344-1.5-.004.586.996 1.492.008.282.496H17l-2.125-3.68c-.215-.335-.496-.32-.668-.32Zm4.715 0c-1.063 0-1.922.895-1.922 2 0 1.106.86 2 1.922 2l2.078.016 1-1.016-3.09.008c-.562-.008-.898-.543-.91-1.004-.016-.496.36-1.016.918-1.023L21 15l1-1.008ZM2 14c-1.059 0-2 .95-2 2.055C0 17.16.941 18 2 18h2c1.059 0 2-.895 2-2s-.941-2-2-2Zm5 0v4h1v-3h1.281c.38-.004.719.137.719.496 0 .356-.332.508-.672.508L8 16l1.695 2.008L11 18l-1.023-1.203S10.992 16.5 11 15.48c.004-.843-.508-1.472-1.367-1.48Zm17 0h-1v3.617a.378.378 0 0 0 .375.383l2.625.008L27 17h-3Zm4.8.008c-1.062 0-1.921.894-1.921 2 0 1.105.86 2 1.922 2H31l1-1h-3.215c-.242.027-.7-.176-.812-.606l3.027.035.988-.91s-2.976.016-4 .02c.094-.461.797-.54.797-.54H31l1-1ZM2 15h2c.2.004.91.305.906.996A.988.988 0 0 1 4 17H2c-.457-.004-.922-.531-.922-.984 0-.563.531-1.024.922-1.016Z"/></svg>